<svg xmlns="http://www.w3.org/2000/svg" viewBox="0 0 24 24" fill="currentColor">
  <path d="M12.525.02c1.31-.02 2.65-.01 3.96-.02.08 1.53.63 3.09 1.75 4.17 1.12 1.11 2.7 1.62 4.24 1.79v4.03c-1.44-.05-2.89-.35-4.2-.97-.57-.26-1.1-.59-1.62-.93-.01 2.92.01 5.84-.02 8.75-.08 1.4-.54 2.7-1.35 3.83-.97 1.26-2.53 2.05-4.13 2.08-1.64.03-3.21-.47-4.41-1.46-1.37-1.13-2.17-2.91-2.17-4.65 0-1.47.61-2.89 1.68-3.89 1.07-1 2.52-1.56 4.08-1.56.18 0 .36.01.53.02.01-1.16-.01-2.32-.02-3.48-.99-.32-2-.56-3.02-.82-2.2-.56-4.43-1.3-6.23-2.97C1.74 3.83 1 1.73 1 0h3.82c.01.81.35 1.56.95 2.13.6.57 1.4.9 2.23.91.02-.01.04-.01.05-.02 1.08-.09 2.15-.58 2.9-1.33.76-.75 1.23-1.76 1.21-2.8H12.525z"/>
</svg>
